<?xml version="1.0" encoding="UTF-8"?>
<svg version="1.1" xmlns="http://www.w3.org/2000/svg" width="401" height="401">
<path d="M0 0 C132.33 0 264.66 0 401 0 C401 132.33 401 264.66 401 401 C268.67 401 136.34 401 0 401 C0 268.67 0 136.34 0 0 Z " fill="#000000" transform="translate(0,0)"/>
<path d="M0 0 C1.65 1.65 3.3 3.3 5 5 C40.91881008 37.41976099 105.27491544 37.95756788 151 42 C151.06469482 42.81637939 151.12938965 43.63275879 151.19604492 44.47387695 C155.27030108 124.04305248 155.27030108 124.04305248 191 191 C196.1710224 193.5855112 204.34328167 192.85324024 210 192 C213.69000168 190.36663161 215.63983786 188.2266951 218 185 C218.86238281 183.90558594 218.86238281 183.90558594 219.7421875 182.7890625 C246.70310829 144.80412076 248.30085048 86.84579535 252 42 C253.01384766 41.90501221 254.02769531 41.81002441 255.07226562 41.7121582 C332.75650049 37.00478033 332.75650049 37.00478033 399 2 C399.66 1.34 400.32 0.68 401 0 C401 64.02 401 128.04 401 194 C268.67 194 136.34 194 0 194 C0 129.98 0 65.96 0 0 Z " fill="#00A1E7" transform="translate(0,207)"/>
<path d="M0 0 C63.03 0 126.06 0 191 0 C189.02 2.31 187.04 4.62 185 7 C178.82536298 15.71713461 174.4929315 24.92699537 171 35 C170.59249512 36.15363037 170.59249512 36.15363037 170.17675781 37.33056641 C157.92502822 72.6677956 153.98437968 110.93086291 151 148 C149.77543091 148.09704224 149.77543091 148.09704224 148.52612305 148.19604492 C69.21452288 152.5087162 69.21452288 152.5087162 2 188 C1.01 188.99 1.01 188.99 0 190 C0 127.3 0 64.6 0 0 Z " fill="#00A1E7" transform="translate(0,0)"/>
<path d="M0 0 C62.37 0 124.74 0 189 0 C189 62.7 189 125.4 189 190 C186.39583333 187.39583333 183.79166667 184.79166667 181.1875 182.1875 C146.0903394 153.1006354 83.07814882 151.82681744 40 148 C39.90501221 146.98615234 39.81002441 145.97230469 39.7121582 144.92773438 C35.13360769 68.53129981 35.13360769 68.53129981 1.6875 2.72265625 C0 1 0 1 0 0 Z " fill="#00A2E8" transform="translate(212,0)"/>
<path d="M0 0 C4.64238395 1.25682137 6.86263398 4.68565273 9.30859375 8.625 C19.65952651 27.81858674 22.27852188 52.17108937 23.30859375 73.625 C25.25572266 73.75455078 25.25572266 73.75455078 27.2421875 73.88671875 C50.54073727 75.61575526 75.21659291 78.48068361 94.68359375 92.3125 C96.83481341 95.37385105 97.12834505 97.61004553 96.93359375 101.31640625 C95.67677238 105.9587902 92.24794102 108.17904023 88.30859375 110.625 C69.11500701 120.97593276 44.76250438 123.59492813 23.30859375 124.625 C23.2828125 125.63433594 23.25703125 126.64367187 23.23046875 127.68359375 C22.62301028 144.9077842 20.24809019 162.07248353 15.37109375 178.625 C15.14268799 179.40665527 14.91428223 180.18831055 14.67895508 180.99365234 C12.34052882 188.42291858 8.82190936 197.0360731 2.30859375 201.625 C-0.92971673 202.52928293 -3.4570575 202.56418374 -6.69140625 201.625 C-19.07700117 192.91560756 -22.12664719 171.55245564 -24.63671875 157.58984375 C-26.45520728 146.63857251 -27.30309376 135.71199109 -27.69140625 124.625 C-28.70074219 124.59921875 -29.71007812 124.5734375 -30.75 124.546875 C-47.97419045 123.93941653 -65.13888978 121.56449644 -81.69140625 116.6875 C-82.47306152 116.45909424 -83.2547168 116.23068848 -84.06005859 115.99536133 C-91.48932483 113.65693507 -100.10247935 110.13831561 -104.69140625 103.625 C-105.59568918 100.38668952 -105.63058999 97.85934875 -104.69140625 94.625 C-95.98201381 82.23940508 -74.61886189 79.18975906 -60.65625 76.6796875 C-49.70497876 74.86119897 -38.77839734 74.01331249 -27.69140625 73.625 C-27.56185547 71.67787109 -27.56185547 71.67787109 -27.4296875 69.69140625 C-25.70065099 46.39285648 -22.83572264 21.71700084 -9.00390625 2.25 C-5.9425552 0.09878034 -3.70636072 -0.1947513 0 0 Z " fill="#7092BE" transform="translate(204.69140625,99.375)"/>
<path d="M0 0 C58.08 0 116.16 0 176 0 C176 56.1 176 112.2 176 170 C175.67 170 175.34 170 175 170 C174.82778931 169.11985229 174.82778931 169.11985229 174.65209961 168.22192383 C168.47792461 137.15197919 157.84478037 108.73024921 139 83 C138.31478271 82.05664795 138.31478271 82.05664795 137.61572266 81.09423828 C133.30896806 75.20662201 128.88353127 69.56372656 123.57421875 64.5390625 C121.94160051 62.94290472 120.51138588 61.2635233 119.0625 59.5 C115.73188018 55.55584495 111.96043852 52.29694536 108 49 C107.14019531 48.27554688 106.28039062 47.55109375 105.39453125 46.8046875 C75.03266053 21.53881482 39.05312026 6.34192747 0 1 C0 0.67 0 0.34 0 0 Z " fill="#000000" transform="translate(225,0)"/>
<path d="M0 0 C58.08 0 116.16 0 176 0 C176 0.33 176 0.66 176 1 C175.44352783 1.08975098 174.88705566 1.17950195 174.3137207 1.27197266 C116.90126074 10.69886262 69.51975923 38.64773354 34.75146484 85.52392578 C29.92959792 92.34067715 25.94670675 99.65436796 22 107 C21.66419922 107.60730957 21.32839844 108.21461914 20.98242188 108.84033203 C10.61807312 127.61624776 4.26027252 148.85970663 1 170 C0.67 170 0.34 170 0 170 C0 113.9 0 57.8 0 0 Z " fill="#000000" transform="translate(0,0)"/>
<path d="M0 0 C0.33 0 0.66 0 1 0 C1 55.44 1 110.88 1 168 C-52.79 168 -106.58 168 -162 168 C-162 167.67 -162 167.34 -162 167 C-161.38294189 166.86013672 -160.76588379 166.72027344 -160.13012695 166.57617188 C-106.0559012 154.14324759 -58.78747052 124.12722607 -28.8125 76.6875 C-27.51247337 74.4696434 -26.2442933 72.24840906 -25 70 C-24.5762207 69.24380371 -24.15244141 68.48760742 -23.71582031 67.70849609 C-11.93212349 46.52010632 -3.52083427 24.11362075 0 0 Z " fill="#000000" transform="translate(400,233)"/>
<path d="M0 0 C0.33 0 0.66 0 1 0 C1.11480713 0.58676514 1.22961426 1.17353027 1.34790039 1.77807617 C7.08992131 30.67331678 16.43624316 58.95157767 34 83 C34.50708496 83.69593262 35.01416992 84.39186523 35.53662109 85.10888672 C37.21795202 87.3965831 38.91609193 89.67033724 40.625 91.9375 C41.15150146 92.63617188 41.67800293 93.33484375 42.22045898 94.0546875 C45.36595825 98.13575861 48.6902122 101.83944061 52.40600586 105.41040039 C54.03024752 107.03016413 55.48628192 108.72483766 56.9375 110.5 C60.26811982 114.44415505 64.03956148 117.70305464 68 121 C68.85980469 121.72445312 69.71960938 122.44890625 70.60546875 123.1953125 C97.58368169 145.64544738 128.76493554 159.77608732 163 167 C163 167.33 163 167.66 163 168 C109.21 168 55.42 168 0 168 C0 112.56 0 57.12 0 0 Z " fill="#000000" transform="translate(0,233)"/>
<path d="M0 0 C6.74701357 7.1325572 10.7594736 14.88052967 10.50390625 24.84765625 C9.54011561 32.35570436 6.65586392 39.09269808 1.1875 44.3125 C-7.0041306 50.38414339 -14.62790882 52.36298613 -24.8125 51.3125 C-33.91321513 48.87053771 -39.50689842 44.5045534 -44.51953125 36.60546875 C-48.27176558 29.95120424 -49.0046442 22.78611327 -47.0546875 15.46875 C-43.84737413 6.07409981 -39.41828994 1.17344961 -30.8125 -3.6875 C-20.12851219 -7.96109512 -9.65970221 -5.79582133 0 0 Z " fill="#000000" transform="translate(220.8125,174.6875)"/>
<path d="M0 0 C4.28590933 2.79515826 7.22425239 5.92275717 8.875 10.875 C9.27180449 16.13265945 8.76998146 19.43602842 5.875 23.875 C2.14828845 27.65262291 -1.04943319 29.71835345 -6.4375 30.125 C-11.07867488 29.81034408 -14.21281977 28.76140961 -17.57421875 25.4453125 C-21.73332268 20.6545968 -22.54956273 17.13730028 -22.125 10.875 C-20.23172504 5.6159029 -17.52716785 3.08491406 -13.125 -0.125 C-8.46247142 -1.67917619 -4.63746673 -1.66948802 0 0 Z " fill="#99D9EA" transform="translate(209.125,183.125)"/>
</svg>
